<svg width="742" height="648" viewBox="0 0 742 648" fill="none" xmlns="http://www.w3.org/2000/svg" xmlns:xlink="http://www.w3.org/1999/xlink">
<g filter="url(#filter0_d)">
<rect x="4" width="734" height="640" fill="url(#pattern0)" shape-rendering="crispEdges"/>
<rect x="4.5" y="0.5" width="733" height="639" stroke="black" shape-rendering="crispEdges"/>
<defs>
<filter id="filter0_d" x="0" y="0" width="742" height="648" filterUnits="userSpaceOnUse" color-interpolation-filters="sRGB">
<feFlood flood-opacity="0" result="BackgroundImageFix"/>
<feColorMatrix in="SourceAlpha" type="matrix" values="0 0 0 0 0 0 0 0 0 0 0 0 0 0 0 0 0 0 127 0" result="hardAlpha"/>
<feOffset dy="4"/>
<feGaussianBlur stdDeviation="2"/>
<feComposite in2="hardAlpha" operator="out"/>
<feColorMatrix type="matrix" values="0 0 0 0 0 0 0 0 0 0 0 0 0 0 0 0 0 0 0.25 0"/>
<feBlend mode="normal" in2="BackgroundImageFix" result="effect1_dropShadow"/>
<feBlend mode="normal" in="SourceGraphic" in2="effect1_dropShadow" result="shape"/>
</filter>
<pattern id="pattern0" patternContentUnits="objectBoundingBox" width="1" height="1">
<use xlink:href="#image0" transform="translate(-0.00408719) scale(0.0013624 0.0015625)"/>
</pattern>
<image id="image0" width="740" height="640" xlink:href="css/img.home 1.jpg">
</defs>
</g>
<path d="M226 533.783L446.8 541.899L516 528V550.014L447.5 570L226 558.841V533.783Z" fill="#3595F6" fill-opacity="0.75"/>
<path d="M227 532.758V507L447.3 510.4L517 507V527.606L447.7 541L227 532.758Z" fill="#3595F6" fill-opacity="0.75"/>
<path d="M227 506V481H448H517V504L449 511L227 506Z" fill="#3595F6" fill-opacity="0.75"/>
<path d="M227 482V456.739L448.3 453L516 459.77V482H448" fill="#3595F6" fill-opacity="0.75"/>
<path d="M227 455.935V429.372L448.5 426L517 437.238V459L448 452.155L227 455.935Z" fill="#3595F6" fill-opacity="0.75"/>
<path d="M226 428.569V404.494L447 392L518 415.363V437L447 424.506L226 428.569Z" fill="#3595F6" fill-opacity="0.75"/>
<path d="M226 405.886V380.531L448.2 364L518 393.006V414L447.7 391.992L226 405.886Z" fill="#3595F6" fill-opacity="0.75"/>
<path d="M226 380.853V355.548L448.5 335L518 372.047V393L446 363.949L226 380.853Z" fill="#3595F6" fill-opacity="0.75"/>
<path d="M226 353.922V329.813L449 305L518 349.201V371L448.7 332.826L226 353.922Z" fill="#3595F6" fill-opacity="0.75"/>
<path d="M226 328.656V304.22L448.5 275L518 326.925V348L447.7 304.933L226 328.656Z" fill="#3595F6" fill-opacity="0.75"/>
<path d="M225 304.722V280.418L447.3 247L518 307.051V327L448 275.658L225 304.722Z" fill="#3595F6" fill-opacity="0.75"/>
<path d="M226 278.694V254.412L447.2 219L517 283.753V305L448.3 246.014L226 278.694Z" fill="#3595F6" fill-opacity="0.75"/>
<path d="M226 254.692V229.418L448.3 191L517 262.073V283L448 218.297L226 254.692Z" fill="#3595F6" fill-opacity="0.75"/>
<path d="M226 228.578V203.259L446.8 159L517 239.01V262L448 187.763L226 228.578Z" fill="#3595F6" fill-opacity="0.75"/>
<path d="M227 203.676V178.444L447 130L517 215.787V239L446.3 158.966L227 203.676Z" fill="#3595F6" fill-opacity="0.75"/>
<path d="M226 178.339V152.904L445.8 100L517 193.905V217L447.3 129.199L226 178.339Z" fill="#3595F6" fill-opacity="0.75"/>
<path d="M226 152.576V126.301L448 69L517 171.778V193L447.7 100.328L226 152.576Z" fill="#3595F6" fill-opacity="0.75"/>

</svg>
